# xmcd CD database file
#
# Track frame offsets:
#	150
#	6166
#	23228
#	36489
#	45364
#	64111
#	85584
#	106022
#	121184
#	137466
#	145756
#	177577
#	197489
#	211360
#	230615
#
# Disc length: 3367 seconds
#
# Revision: 0
# Processed by: cddbd v1.5.2PL0 Copyright (c) Steve Scherf et al.
# Submitted via: cdripper 1,0,33,916
#
DISCID=c20d250f
DTITLE=John Etheridge - Small Hotel
DYEAR=2009
DGENRE=Jazz
TTITLE0=Porte
TTITLE1=There's a Small Hotel
TTITLE2=When You're Smiling
TTITLE3=Géantology
TTITLE4=I'll Be Seeing You
TTITLE5=Swing 39
TTITLE6=Wise Old Wine
TTITLE7=Seven Come Eleven
TTITLE8=Places Between
TTITLE9=Milleu
TTITLE10=In Your Own Sweet Way
TTITLE11=Manha De Carnival
TTITLE12=You Took Advantage Of Me
TTITLE13=Don't Worry `Bout Me
TTITLE14=I Saw You Passing By
EXTD=YEAR: 2009
EXTT0=
EXTT1=
EXTT2=
EXTT3=
EXTT4=
EXTT5=
EXTT6=
EXTT7=
EXTT8=
EXTT9=
EXTT10=
EXTT11=
EXTT12=
EXTT13=
EXTT14=
PLAYORDER=
